<svg id="Layer_1" enable-background="new 0 0 512 512" height="512" viewBox="0 0 512 512" width="512" xmlns="http://www.w3.org/2000/svg"><g><path d="m124.809 284.668h46.161c8.529-3.307 14.375-5.573 15.175-5.883 2.164-.839 9.3-4.27 9.3-9.961v-26.042c-19.288-13.009-32.932-33.573-33.53-56.588-8.381 1.05-16.456-1.18-22.74-5.539-.653 11.139-4.517 25.152-11.454 33.262-3.784 4.424-8.901 7.817-14.674 10.794-14.515 7.484-20.575 44.111-3.275 65.387 3.794-3.971 9.126-5.43 15.037-5.43z" fill="#ffe181"/><path d="m167.132 224.71c2.228-1.149 4.356-2.363 6.35-3.671-6.969-10.314-11.237-22.209-11.566-34.846-8.381 1.05-16.456-1.18-22.74-5.539-.653 11.14-4.517 25.152-11.454 33.262-3.784 4.424-8.901 7.817-14.674 10.794-14.515 7.484-20.575 44.111-3.275 65.387 3.793-3.971 9.125-5.43 15.036-5.43h35.327c-12.531-21.57-6.349-53.076 6.996-59.957z" fill="#fec458"/><path d="m268.777 266.142c0-6.196.569-14.319 1.649-20.203-10.068 5.387-22.55 8.446-34.681 8.405-16.422-.055-30.774-4.779-42.361-12.593v27.073c0 5.691-5.076 7.061-7.24 7.901-.8.31-6.645 3.606-15.175 6.913h99.166c-.888-5.358-1.358-11.887-1.358-17.496z" fill="#ffcebe"/><path d="m236.54 254.334c-.265.002-.53.011-.794.01-16.422-.055-30.774-4.779-42.361-12.592v27.072c0 5.691-5.076 7.062-7.24 7.901-.8.31-6.645 3.606-15.175 6.913h65.569v-29.304z" fill="#ffb1a0"/><path d="m340.244 170.084c1.858-3.578 2.906-7.563 2.906-11.767 0-7.061-2.786-13.507-7.363-18.445-6.329-5.735-16.132-9.727-27.627-8.089h-.039-.001l-3.091 51.829c0 .793 3.059 3.639 3.03 4.426 9.559-7.109 20.43-14.612 32.185-17.954z" fill="#ffcebe"/><path d="m328.741 135.053c-5.699-2.884-12.745-4.386-20.58-3.27h-.039-.001l-3.091 51.829c0 .793 3.059 3.639 3.03 4.426 6.354-4.727 13.291-9.62 20.68-13.356v-39.629z" fill="#ffb1a0"/><path d="m119.101 480.131h-.181c-8.682-2.586-10.807-10.709-10.807-19.958l-4.121-151.599c-9.09 3.524-16.179 6.273-19.223 7.453-17.194 7.076-40.217 29.341-40.217 62.38v120.192c0 7.402 6 13.402 13.402 13.402h61.147z" fill="#93d3a2"/><path d="m73.701 498.598c0-4.729 0-115.435 0-120.192 0-26.945 16.344-46.721 31.32-56.939l-1.03-12.894c-9.09 3.524-16.179 6.273-19.223 7.453-17.194 7.076-40.217 29.341-40.217 62.38v120.192c0 7.402 6 13.402 13.402 13.402h29.15c-7.401 0-13.402-6-13.402-13.402z" fill="#6ec17d"/><path d="m419.051 351.728c-15.027 9.053-32.631 14.265-51.453 14.265-.533 0-1.063-.012-1.594-.02v94.201c0 9.249-6.246 17.373-14.928 19.958h-.188v31.868h60.256c7.402 0 13.402-6 13.402-13.402 0-4.729 0-115.435 0-120.192 0-9.437-2.013-18.475-5.495-26.678z" fill="#93d3a2"/><path d="m163.93 184.322-2.06-52.538h-.04c-11.287-1.574-20.851 2.592-27.631 8.098-.004.003-.009.007-.013.01-4.567 4.936-7.346 11.374-7.346 18.426 0 16.833 16.809 30.164 35.075 27.876-.016-.624 2.015-1.247 2.015-1.872z" fill="#ffcebe"/><path d="m148.883 158.317c0-7.051 2.779-13.49 7.346-18.426.004-.004.009-.007.013-.01 1.75-1.422 3.69-2.75 5.793-3.917l-.164-4.181h-.04c-11.287-1.574-20.851 2.592-27.631 8.098-.004.004-.009.007-.013.01-4.567 4.936-7.346 11.374-7.346 18.426 0 16.833 16.809 30.164 35.075 27.876-.016-.624 2.015-1.246 2.015-1.872l-.08-2.04c-8.855-4.947-14.968-13.816-14.968-23.964z" fill="#ffb1a0"/><path d="m272.197 282.607h-147.388c-11.479 0-20.818 9.339-20.818 20.818v156.748c0 9.249 6.246 18.403 14.928 20.988h232.157c8.682-2.585 14.928-11.739 14.928-20.988v-97.291c-48.822-.765-86.04-33.473-93.807-80.275z" fill="#dfebfa"/><path d="m152.41 460.173v-156.748c0-11.479 9.339-20.818 20.818-20.818h-48.418c-11.479 0-20.818 9.339-20.818 20.818v156.748c0 9.249 6.246 18.403 14.928 20.988h48.418c-8.682-2.585-14.928-11.738-14.928-20.988z" fill="#bed8fb"/><path d="m308.061 187.008c.026-.787.06-1.573.06-2.365v-54.92c-25.783 0-18.268.284-35.009-1.136-17.345-1.471-32.647-13.504-36.919-31.086-.307-1.267-2.084-1.265-2.392 0-4.279 17.653-19.742 29.812-37.324 31.159 1.031-.079-12.995 1.063-15.488 1.063h-19.119v54.598c0 37.579 29.376 71.933 73.876 72.083 3.505.012 6.199-1.471 9.695-1.958 3.102-.432 7.014.182 10.01-.615 5.317-1.414 10.396-3.382 14.975-5.831 4.644-25.296 17.787-46.227 37.635-60.992z" fill="#ffdecf"/><path d="m201.704 184.322v-56.394c-1.715.348-3.459.598-5.226.733 1.031-.079-12.995 1.063-15.489 1.063h-19.119v54.598c0 37.579 29.376 71.933 73.876 72.083 6.614.022 13.329-.884 19.703-2.579-33.011-8.653-53.745-37.936-53.745-69.504z" fill="#ffcebe"/><g><g><path d="m246.341 396.916h-23.585c-4.267 0-7.726-3.459-7.726-7.726s3.459-7.726 7.726-7.726h23.585c4.267 0 7.726 3.459 7.726 7.726 0 4.266-3.459 7.726-7.726 7.726z" fill="#bed8fb"/></g></g><path d="m379.941 480.131h-289.887c-1.92 0-3.476 1.571-3.476 3.51v12.072c0 8.958 7.258 16.287 16.129 16.287h264.58c8.871 0 16.129-7.329 16.129-16.287v-12.072c.001-1.938-1.556-3.51-3.475-3.51z" fill="#bed8fb"/><path d="m145.386 495.713v-12.072c0-1.938 1.556-3.51 3.476-3.51h-58.808c-1.92 0-3.476 1.571-3.476 3.51v12.072c0 8.957 7.258 16.287 16.129 16.287h58.807c-8.87 0-16.128-7.329-16.128-16.287z" fill="#9dc6fb"/><circle cx="367.598" cy="266.142" fill="#9dc6fb" r="99.851"/><path d="m311.408 266.142c0-47.647 33.375-87.492 78.02-97.451-7.027-1.567-14.331-2.4-21.831-2.4-55.146 0-99.851 44.705-99.851 99.851s44.705 99.851 99.851 99.851c7.499 0 14.803-.833 21.831-2.4-44.645-9.959-78.02-49.804-78.02-97.451z" fill="#80b4fb"/><path d="m405.695 219.222h-77.921c-9.568 0-17.396 7.828-17.396 17.396v49.143c0 9.568 7.828 17.396 17.396 17.396h33.904c2.793 0 5.057 2.264 5.057 5.056v15.37c0 4.498 5.294 6.905 8.683 3.948l26.188-22.842c1.133-.988 2.586-1.533 4.089-1.533 9.568 0 17.396-7.828 17.396-17.396v-49.143c0-9.566-7.828-17.395-17.396-17.395z" fill="#ffe181"/><path d="m405.339 303.157h-33.904c-9.568 0-17.396-7.828-17.396-17.396v-49.143c0-9.568 7.828-17.396 17.396-17.396h-43.661c-9.568 0-17.396 7.828-17.396 17.396v49.143c0 9.568 7.828 17.396 17.396 17.396h33.904c2.793 0 5.057 2.264 5.057 5.057v15.37c0 4.497 5.294 6.905 8.683 3.948l26.188-22.842c1.085-.947 2.466-1.472 3.901-1.516-.057-.002-.11-.017-.168-.017z" fill="#fec458"/><g><g><path d="m343.162 268.4h-2.488c-4.267 0-7.726-3.459-7.726-7.726s3.459-7.726 7.726-7.726h2.488c4.267 0 7.726 3.459 7.726 7.726s-3.459 7.726-7.726 7.726z" fill="#f9ab49"/></g></g><g><g><path d="m368.842 268.4h-2.488c-4.267 0-7.726-3.459-7.726-7.726s3.459-7.726 7.726-7.726h2.488c4.267 0 7.726 3.459 7.726 7.726s-3.459 7.726-7.726 7.726z" fill="#f9ab49"/></g></g><g><g><path d="m394.522 268.4h-2.488c-4.267 0-7.726-3.459-7.726-7.726s3.459-7.726 7.726-7.726h2.488c4.267 0 7.726 3.459 7.726 7.726s-3.459 7.726-7.726 7.726z" fill="#f9ab49"/></g></g><path d="m234.242.003c-55.597.406-100.071 46.488-100.071 102.087v37.814c6.782-5.517 16.357-9.697 27.66-8.121h.04 19.119c2.494 0 16.519-1.142 15.489-1.063 17.582-1.346 33.045-13.505 37.324-31.158.308-1.265 2.084-1.267 2.392 0 4.272 17.582 19.573 29.615 36.919 31.086 16.741 1.42 9.225 1.136 35.009 1.136h.039c11.517-1.642 21.336 2.369 27.664 8.121 0-15.865 0-33.418 0-39.077-.001-55.937-45.549-101.235-101.584-100.825z" fill="#ffe181"/><g><g><path d="m182.654 102.09c0-47.532 32.508-88.103 76.679-99.131-8.027-1.989-16.433-3.02-25.09-2.957-55.598.407-100.072 46.489-100.072 102.088v37.814c6.782-5.517 16.357-9.697 27.66-8.121h.04 19.119c.35 0 .933-.023 1.664-.061z" fill="#fec458"/></g></g></g></svg>