<svg id="Capa_1" enable-background="new 0 0 512 512" height="512" viewBox="0 0 512 512" width="512" xmlns="http://www.w3.org/2000/svg"><g><path d="m313.9 291.551-64.799 37.5-65.102 37.5-15-26.1 26.1-15-75-129.901-39 22.5 15 26.1-26.099 15-60-104.101 104.101-60 103.798-60 60 104.101-25.799 15-15-26.1-39 22.5 75 129.901 25.8-15z" fill="#979fef"/><path d="m512 401.951h-30c0-41.4-33.6-75-75-75-13.5 0-27.001 3.6-38.401 10.499l-85.598 50.7-123.001 73.801c-16.199 9.899-36.099 15-55 15-57.9 0-105-47.1-105-105h30c0 41.4 33.6 75 75 75 13.5 0 28.001-3.6 39.401-10.501l123.898-74.099 84.701-50.4c16.199-9.901 35.099-15 54-15 57.9 0 105 47.1 105 105z" fill="#61729b"/><path d="m313.9 291.551-64.799 37.5-135-234.002 103.798-60 60 104.101-25.799 15-15-26.1-39 22.5 75 129.901 25.8-15z" fill="#737ee6"/><path d="m512 401.951h-30c0-41.4-33.6-75-75-75-13.5 0-27.001 3.6-38.401 10.499l-85.598 50.7-14.702-25.8 84.701-50.4c16.199-9.901 35.099-15 54-15 57.9.001 105 47.101 105 105.001z" fill="#47568c"/></g></svg>