<svg id="Capa_1" enable-background="new 0 0 512 512" height="512" viewBox="0 0 512 512" width="512" xmlns="http://www.w3.org/2000/svg"><g><path d="m512 256c0 141.385-114.615 256-256 256s-256-114.615-256-256 114.615-256 256-256 256 114.615 256 256z" fill="#40c1fa"/><path d="m463.644 256c0 114.679-92.966 207.645-207.644 207.645s-207.644-92.966-207.644-207.645 92.966-207.644 207.644-207.644 207.644 92.965 207.644 207.644z" fill="#72d1fb"/><path d="m438.797 388.42c3.227 7.281 5.019 15.338 5.019 23.814 0 7.912-190.982 99.751-192.56 99.723-17.808-.324-35.172-2.466-51.914-6.249-.588-3.337-.895-6.771-.895-10.276 0-32.493 26.341-58.833 58.833-58.833h.095c8.16-20.776 27.798-35.785 51.108-37.221 1.27-10.756 10.418-19.099 21.516-19.099 1.784 0 3.518.216 5.177.623 10.417-16.524 28.829-27.502 49.805-27.502 9.135 0 17.784 2.082 25.498 5.797 3.504-7.25 10.927-12.251 19.519-12.251 11.966 0 21.667 9.7 21.667 21.667.002 8.835-5.286 16.434-12.868 19.807zm-281.737 60.281c0-.032 0-.064 0-.095 0-28.722-20.582-52.636-47.801-57.8 1.263-4.796 1.936-9.832 1.936-15.025 0-32.493-26.341-58.833-58.833-58.833-15.711 0-29.983 6.158-40.535 16.192 21.623 68.508 71.28 124.569 135.514 154.724 14.948 7.016 31.577-30.578 9.719-39.163z" fill="#489160"/><path d="m505.709 312.655c-25.783 114.122-127.793 199.345-249.709 199.345-1.585 0-3.166-.015-4.744-.043-.114-1.498-.173-3.012-.173-4.54 0-32.08 25.675-58.162 57.597-58.82.658-31.922 26.741-57.597 58.82-57.597 12.855 0 24.746 4.123 34.425 11.118 8.344-4.539 17.908-7.118 28.075-7.118 3.269 0 6.477.267 9.601.78-3.801-7.785-5.934-16.533-5.934-25.78 0-32.493 26.341-58.833 58.833-58.833 4.542 0 8.963.514 13.209 1.488zm-314.936 86.424c-.493-23.904-16.385-44.023-38.158-50.842.206-1.78.313-3.59.313-5.425 0-24.483-18.862-44.56-42.847-46.494-3.519-26.682-26.352-47.276-53.996-47.276-26.462 0-48.516 18.87-53.44 43.888 2.185 15.121 5.691 29.814 10.398 43.959 9.965 12.83 25.539 21.085 43.042 21.085 2.014 0 4.002-.109 5.96-.322 3.807 11.351 11.86 20.754 22.273 26.321-1.602 5.132-2.465 10.59-2.465 16.25 0 29.698 23.769 53.845 53.322 54.455.259 12.568 4.775 24.09 12.165 33.182 17.452 8.193 35.98 14.474 55.314 18.572 23.792-5.838 41.442-27.307 41.442-52.899-.002-29.698-23.771-53.845-53.323-54.454z" fill="#6dc54a"/><path d="m260.7 353.212c-94.715 30.193-179.656 29.075-189.72-2.496-10.064-31.572 58.559-81.642 153.274-111.835s179.656-29.075 189.72 2.496-58.559 81.642-153.274 111.835z" fill="#2476ed"/><path d="m327.887 375.732c-.966 1.196-2.222 2.017-3.587 2.445-2.313.724-4.933.316-6.96-1.321l-36.069-29.121c-1.436-1.159-2.394-2.807-2.691-4.628l-2.025-12.416c4.863-1.716 9.644-3.482 14.335-5.293l2.033 12.466 33.839 27.321c3.224 2.602 3.727 7.325 1.125 10.547zm74.686-50.697-40.642-11.882-5.939-18.959c-4.263 2.55-8.716 5.079-13.345 7.578l6.17 19.696c.75 2.393 2.646 4.253 5.053 4.957l44.494 13.009c1.475.431 2.976.389 4.34-.038 2.313-.725 4.232-2.555 4.963-5.056 1.162-3.977-1.118-8.143-5.094-9.305z" fill="#5596fb"/><path d="m413.974 241.377c10.064 31.572-58.559 81.642-153.274 111.835s-179.656 29.075-189.72-2.496c-1.723-5.404-1.14-11.349 1.484-17.645 34.302 12.56 107.828 5.773 188.236-19.859 66.757-21.281 122.128-50.409 150.853-76.908 1.039 1.593 1.851 3.284 2.421 5.073z" fill="#0956c6"/><path d="m470 226.947c0 22.091-17.909 40-40 40-15.06 0-28.177-8.324-35-20.621-6.824 12.298-19.94 20.621-35 20.621-22.091 0-40-17.909-40-40 0-22.092 17.909-40 40-40 15.06 0 28.176 8.323 35 20.621 6.824-12.298 19.94-20.621 35-20.621 22.091 0 40 17.908 40 40z" fill="#ffe7c0"/><path d="m400 226.947c0 5.869-1.264 11.444-3.535 16.465-5.021 2.271-10.596 3.535-16.465 3.535-22.091 0-40-17.909-40-40 0-5.869 1.264-11.443 3.535-16.465 5.021-2.271 10.596-3.535 16.465-3.535 22.091 0 40 17.909 40 40zm30-40c-5.869 0-11.443 1.264-16.465 3.535-2.271 5.021-3.535 10.595-3.535 16.465 0 22.091 17.909 40 40 40 5.869 0 11.444-1.264 16.465-3.535 2.271-5.021 3.535-10.596 3.535-16.465 0-22.091-17.909-40-40-40z" fill="#fff5f5"/><path d="m370 226.947c0 5.523-4.477 10-10 10s-10-4.477-10-10 4.477-10 10-10 10 4.477 10 10zm60-10c-5.523 0-10 4.477-10 10s4.477 10 10 10 10-4.477 10-10-4.477-10-10-10z" fill="#0a3575"/><path d="m505 317.625c0 4.142-3.358 7.5-7.5 7.5-59.276 0-107.5-48.224-107.5-107.5 0-4.142 3.358-7.5 7.5-7.5s7.5 3.358 7.5 7.5c0 51.005 41.495 92.5 92.5 92.5 4.142 0 7.5 3.358 7.5 7.5z" fill="#2476ed"/><path d="m507.5 312.625v15c0 4.142-3.358 7.5-7.5 7.5s-7.5-3.358-7.5-7.5v-15c0-4.142 3.358-7.5 7.5-7.5s7.5 3.358 7.5 7.5z" fill="#5596fb"/><path d="m252.903 57c.275-3.408.604-6.799.985-10.173 5.509-48.82 78.457-42.925 76.055 6.146-.166 3.391-.386 6.791-.662 10.199-4.122 51.001-24.633 154.017-50.156 202.119-2.066 3.894-7.759 3.434-9.173-.741-17.469-51.577-21.171-156.549-17.049-207.55zm5.206 213.449c-15.966-52.062-74.306-139.408-107.454-178.385-2.215-2.605-4.463-5.164-6.744-7.679-33-36.397-88.751 11.016-58.125 49.433 2.116 2.654 4.282 5.284 6.497 7.889 33.148 38.977 109.993 110.586 158.815 134.705 3.953 1.951 8.304-1.749 7.011-5.963z" fill="#b4e7fd"/><path d="m329.942 52.973c-.166 3.391-.386 6.791-.662 10.2-1.7 21.04-6.19 50.933-12.67 82.17-3.663 17.656-20.929 29.178-38.583 25.507-.211-.044-.421-.089-.631-.135-14.286-3.164-24.54-15.798-25.176-30.416-1.388-31.932-1.021-62.223.682-83.298.275-3.407.604-6.797.984-10.169 5.509-48.82 78.458-42.929 76.056 6.141zm-179.287 39.09c-2.214-2.603-4.461-5.162-6.741-7.676-32.996-36.396-88.753 11.016-58.129 49.428 2.116 2.655 4.282 5.285 6.498 7.89 13.407 15.765 33.963 36.868 56.921 58.007 11.917 10.973 30.106 11.669 42.753 1.544.19-.152.379-.305.567-.459 12.873-10.549 15.428-29.307 6.267-43.203-17.185-26.068-34.723-49.759-48.136-65.531z" fill="#d5f1fe"/><path d="m76.792 446.947c-2.424 0-4.802-1.173-6.247-3.341-2.298-3.446-1.367-8.103 2.08-10.4l35.231-23.488v-98.843c0-2.766 1.522-5.308 3.961-6.613s5.397-1.163 7.699.373l68.304 45.442c3.447 2.297 4.378 6.954 2.08 10.4-2.297 3.447-6.954 4.377-10.4 2.08l-56.644-37.669v88.843c0 2.508-1.253 4.849-3.34 6.24l-38.571 25.714c-1.278.854-2.724 1.262-4.153 1.262zm116.949-29.769 25.714-38.571c1.024-1.535 1.445-3.394 1.185-5.221l-11.142-77.986 94.877 31.547c3.93 1.311 8.176-.814 9.487-4.744 1.31-3.93-.814-8.177-4.744-9.487l-106.389-35.385c-2.465-.822-5.182-.308-7.177 1.357-1.996 1.666-2.986 4.246-2.619 6.819l12.452 87.164-24.125 36.187c-2.298 3.446-1.367 8.103 2.08 10.4 1.279.853 2.724 1.261 4.153 1.261 2.424 0 4.803-1.173 6.248-3.341z" fill="#0a4499"/><path d="m350.009 154.448c-.31 0-.624-.02-.939-.059-4.11-.514-7.026-4.262-6.512-8.372l10-80c.514-4.11 4.259-7.026 8.372-6.512 4.11.514 7.026 4.262 6.512 8.372l-10 80c-.474 3.795-3.705 6.571-7.433 6.571zm37.106-15.129 10-30c1.31-3.93-.814-8.177-4.744-9.487-3.93-1.311-8.176.814-9.487 4.744l-10 30c-1.31 3.93.814 8.177 4.744 9.487.787.262 1.586.387 2.373.387 3.14-.001 6.066-1.989 7.114-5.131z" fill="#fff5f5"/><path d="m115.356 356.947c4.142 0 7.5 3.358 7.5 7.5v49.284c0 2.508-1.253 4.85-3.34 6.241l-38.571 25.714c-1.278.853-2.724 1.261-4.153 1.261-2.424 0-4.802-1.173-6.247-3.341-2.298-3.446-1.367-8.103 2.08-10.4l35.231-23.488v-45.271c0-4.142 3.358-7.5 7.5-7.5zm94.359-14.5c-4.564 0-8.07 4.042-7.425 8.561l3.095 21.663-24.125 36.187c-2.298 3.446-1.367 8.103 2.08 10.4 1.279.853 2.724 1.261 4.153 1.261 2.423 0 4.802-1.173 6.247-3.341l25.714-38.571c1.024-1.535 1.445-3.394 1.185-5.221l-3.5-24.5c-.527-3.695-3.692-6.439-7.424-6.439z" fill="#0a3575"/></g></svg>