<svg id="Capa_1" enable-background="new 0 0 512 512" height="512" viewBox="0 0 512 512" width="512" xmlns="http://www.w3.org/2000/svg"><g><g><g><path d="m112.131 483.59c-4.668-10.137-.235-22.138 9.901-26.806 6.38-2.938 12.269-6.363 17.506-10.178 16.263-11.851 23.669-32.846 18.866-53.485-13.367-57.447 27.806-95.165 29.565-96.742l26.979 30.088.122-.112c-1.032.957-25.167 23.822-17.306 57.606 8.486 36.472-5.027 73.88-34.427 95.305-7.392 5.386-15.601 10.172-24.402 14.224-10.094 4.651-22.117.277-26.804-9.9z" fill="#4f4c5f"/></g><g><path d="m9.358 439.136c-4.668-10.136-.236-22.138 9.901-26.805 6.38-2.938 12.269-6.363 17.506-10.178 16.263-11.851 23.669-32.846 18.866-53.485-13.367-57.447 27.806-95.165 29.565-96.742l26.979 30.088.122-.111c-1.032.957-25.167 23.822-17.306 57.606 8.486 36.472-5.027 73.88-34.427 95.305-7.392 5.386-15.601 10.172-24.402 14.224-10.094 4.65-22.117.276-26.804-9.902z" fill="#4f4c5f"/></g><g><path d="m360.878 483.59c4.668-10.137.235-22.138-9.901-26.806-6.38-2.938-12.269-6.363-17.506-10.178-16.263-11.851-23.669-32.846-18.866-53.485 13.367-57.447-27.806-95.165-29.565-96.742l-26.979 30.088-.122-.112c1.031.957 25.167 23.822 17.306 57.606-8.486 36.472 5.027 73.88 34.427 95.305 7.392 5.386 15.601 10.172 24.402 14.224 10.094 4.651 22.117.277 26.804-9.9z" fill="#423e4f"/></g><path d="m223.133 51.07c22.652-35.102 69.625-45.035 104.576-21.964 35.775 23.616 43.617 72.485 18.976 107.562-26.004 37.018-66.962 52.743-96.121 59.413-20.26 4.635-40.388-8.236-44.527-28.602-6.171-30.374-8.734-76.381 17.096-116.409z" fill="#d6d6d4"/><path d="m85.196 251.925c-1.759 1.578-42.932 39.295-29.565 96.742 2.128 9.148 1.854 18.363-.522 26.824 8.54 1.857 17.53 2.842 26.848 2.842h.009c4.694 0 9.39-.277 14.077-.776 2.184-12.311 1.929-25.237-1.053-38.05-7.861-33.784 16.274-56.649 17.306-57.606l-.122.112z" fill="#423e4f"/><ellipse cx="93.525" cy="276.654" fill="#e7886e" rx="87.443" ry="69.715" transform="matrix(.949 -.314 .314 .949 -82.186 43.395)"/><path d="m30.511 324.128c-12.097-36.553 15.263-78.485 61.111-93.658 29.118-9.637 58.676-6.147 79.48 7.036-17.333-28.381-58.838-40.487-99.48-27.036-45.848 15.173-73.208 57.106-61.111 93.658 4.414 13.338 13.486 24.101 25.438 31.675-2.22-3.635-4.065-7.524-5.438-11.675z" fill="#e27858"/><path d="m187.969 296.379c-1.288 1.155-23.704 21.688-30.371 55.151 11.543 8.22 24.581 14.467 38.614 18.264.311-25.866 17.979-42.622 18.859-43.438l-.122.111z" fill="#423e4f"/><circle cx="227.923" cy="252.487" fill="#ed9b83" r="91.512"/><circle cx="355.771" cy="304.046" fill="#6a647f" r="109.866"/><path d="m416.04 338.439 82.416 58.389c6.455 4.573 7.98 13.513 3.407 19.968-3.717 5.246-10.334 7.227-16.141 5.333l-95.996-31.407c-15.536-5.083-24.01-21.798-18.927-37.335 6.191-18.925 28.825-26.455 45.241-14.948z" fill="#ed9b83"/><path d="m222.609 51.07c-22.652-35.102-69.625-45.035-104.576-21.964-35.775 23.616-43.617 72.485-18.976 107.562 26.004 37.018 66.962 52.743 96.121 59.413 20.26 4.635 40.388-8.236 44.527-28.602 6.171-30.374 8.735-76.381-17.096-116.409z" fill="#e4e4e4"/><path d="m215.178 176.081c-29.159-6.671-70.117-22.396-96.121-59.413-18.84-26.82-18.67-61.692-1.563-87.185-35.304 23.752-42.95 72.289-18.437 107.185 26.004 37.018 66.962 52.742 96.121 59.413 17.927 4.102 35.743-5.51 42.477-21.887-6.867 2.849-14.66 3.676-22.477 1.887z" fill="#d6d6d4"/></g><g><path d="m328.996 310.747c-4.142 0-7.499 3.358-7.499 7.499v17.173c0 4.142 3.358 7.499 7.499 7.499 4.142 0 7.499-3.358 7.499-7.499v-17.173c.001-4.141-3.357-7.499-7.499-7.499z"/><path d="m502.787 390.68-43.707-30.965c9.207-17.052 14.056-36.157 14.056-55.689 0-84.302-86.698-141.051-163.718-107.798-2.584-3.748-5.398-7.29-8.422-10.606 21.581-11.373 38.99-26.355 51.838-44.645 10.792-15.363 16.181-33.356 15.584-52.034-.132-4.14-3.587-7.373-7.735-7.256-4.14.132-7.388 3.595-7.256 7.735.492 15.404-3.957 30.251-12.867 42.934-12.367 17.604-29.59 31.842-51.239 42.371-11.72-9.276-25.418-15.744-39.979-18.929 5.105-36.169.933-72.731-17.52-104.088 30.778-41.924 94.773-34.171 115.514 11.454 1.714 3.77 6.16 5.436 9.931 3.723 3.77-1.714 5.437-6.16 3.723-9.931-24.544-53.984-98.884-65.247-138.093-18.129-43.701-52.511-131.002-31.981-144.094 37.033-9.489 50.014 26.99 91.578 73.032 113.295-3.95 4.725-7.42 9.758-10.385 15.047-38.932-15.543-87.83-3.23-116.989 26.817-2.884 2.972-2.813 7.72.159 10.604 2.971 2.883 7.719 2.813 10.604-.159 25.019-25.78 67.107-36.332 99.911-23.634-5.666 15.214-7.364 31.536-5.412 47.078 2.274 18.044 9.516 34.928 20.366 48.722-41.8 40.639-116.992 34.712-132.412-11.878-4.018-12.139-3.148-25.384 2.515-38.301 1.662-3.794-.064-8.216-3.858-9.879-3.793-1.661-8.216.065-9.879 3.857-16.787 38.295 1.079 77.77 41.833 92.556 4.417 19.337-2.89 36.599-15.895 46.077-4.838 3.525-10.297 6.696-16.226 9.426-6.721 3.095-11.835 8.623-14.399 15.564-8.505 23.022 15.207 45.066 37.574 34.762 9.246-4.257 17.885-9.295 25.679-14.974 27.508-20.046 42.318-53.028 39.698-87.402 19.148-3.95 37.872-12.831 52.89-26.331-7.373 16.631-12.928 39.972-6.48 67.685 4.118 17.699-2.153 35.645-15.976 45.719-4.837 3.524-10.296 6.696-16.225 9.426-22.556 10.388-20.903 42.736 2.023 51.163 6.927 2.547 14.439 2.256 21.154-.837 9.247-4.258 17.886-9.296 25.678-14.974 31.835-23.199 46.48-63.65 37.311-103.055-2.6-11.174-1.537-22.16 3.137-32.732 12.632 2.563 26.064 2.697 39.371.012 5.028 11.912 11.972 22.822 20.437 32.353-9.512 42.846 7.221 81.554 37.23 103.422 7.792 5.678 16.431 10.715 25.677 14.973 6.537 3.012 14.051 3.45 21.155.837 22.934-8.43 24.568-40.781 2.023-51.163-5.929-2.73-11.388-5.902-16.225-9.425-7.937-5.784-13.497-14.375-15.892-24.091 29.65 8.926 62.822 5.952 91.328-10.113 73.448 23.636 70.687 24.012 76.888 24.012 13.374 0 23.742-12.115 21.457-25.504-.977-5.745-4.137-10.765-8.893-14.135zm-412.949-35.178c1.89 28.87-10.618 56.435-33.646 73.216-6.994 5.096-14.773 9.628-23.121 13.472-10.333 4.761-21.11-5.438-17.231-15.942 1.176-3.183 3.521-5.718 6.603-7.137 6.827-3.144 13.147-6.821 18.784-10.928 16.761-12.215 25.358-32.794 23.009-53.908 8.487 1.47 17.414 1.812 25.602 1.227zm15.395-223.146c-22.188-31.586-15.3-75.681 16.969-96.982 31.193-20.592 73.633-12.258 94.382 20.171 20.911 32.694 23.46 72.705 15.796 110.436-3.294 16.212-19.297 26.489-35.501 22.782-36.435-8.335-70.386-26.142-91.646-56.407zm88.47 213.02c-4.187 10.354-6.955 24.18-3.214 40.257 7.801 33.529-4.577 67.889-31.536 87.534-6.992 5.095-14.771 9.627-23.121 13.472-3.075 1.417-6.52 1.553-9.704.383-10.497-3.858-11.284-18.692-.924-23.462 6.827-3.144 13.147-6.821 18.784-10.928 18.699-13.627 27.237-37.664 21.752-61.24-4.628-19.892-2.81-39.309 5.399-57.843 7.043 4.931 14.938 9.006 22.564 11.827zm48.918-10.181c-67.011 11.82-119.32-56.868-90.9-118.06 3.808-8.212 8.703-15.423 14.693-21.848 8.954 3.345 27.165 9.241 37.19 9.241 20.115 0 38.24-13.783 43.111-33.936 19.974 4.558 37.464 16.323 49.188 32.485-46.266 27.386-67.057 82.062-53.282 132.118zm86.448 117.437c5.637 4.107 11.956 7.783 18.784 10.928 10.334 4.759 9.589 19.598-.924 23.462-3.182 1.17-6.628 1.034-9.705-.383-8.349-3.844-16.127-8.377-23.119-13.472-24.595-17.922-37.054-48.09-33.127-78.704 7.595 6.302 15.92 11.588 24.889 15.801 1.319 17.005 9.77 32.58 23.202 42.368zm-70.141-115.49c-22.395-65.49 26.098-135.471 96.855-135.471 76.776 0 125.926 81.674 90.967 149.308l-24.491-17.351v-15.382c0-4.142-3.358-7.499-7.499-7.499-4.142 0-7.499 3.358-7.499 7.499v8.169c-30.625-7.116-55.545 25.041-41.41 52.922 8.59 16.945 24.437 19.012 26.79 20.197-54.086 20.855-114.884-7.472-133.713-62.392zm236.812 75.288c-1.71 2.414-4.873 3.459-7.688 2.54-105.268-34.441-97.352-31.665-100.069-33.212-1.964-1.115-3.81-2.601-5.349-4.293-18.11-19.867 7.851-47.781 29.094-32.918l82.39 58.37c3.069 2.176 3.797 6.443 1.622 9.513z"/></g></g></svg>